<?xml version="1.0"?><svg width="640" height="480" xmlns="http://www.w3.org/2000/svg">
 <title>red cloud</title>
 <g>
  <title>Layer 1</title>
  <g id="layer1">
   <path d="m350.066071,52.305119c-30.361511,-7.802872 -61.087219,1.126755 -82.298706,20.525791c-11.082123,-12.77618 -26.087952,-22.636787 -44.086792,-27.262135c-46.321945,-11.904358 -94.041779,14.520374 -106.453766,58.949017c-0.912056,3.264626 -1.152199,6.547554 -1.641335,9.812737c-41.715157,-4.159065 -81.629993,20.888298 -92.828375,60.973381c-11.096056,39.718338 9.842768,80.331589 47.476942,97.030197c-2.045708,4.254761 -3.953125,8.638092 -5.259888,13.315094c-12.411808,44.42865 15.166641,90.09964 61.488678,102.003998c22.688644,5.831726 45.617416,2.407379 64.65097,-7.75766c10.489975,21.524017 30.047897,38.847565 55.830185,45.473114c36.785751,9.45401 74.113968,-5.521942 94.266678,-34.225983c8.163361,5.542908 17.237244,10.127899 27.458527,12.755188c46.32193,11.904358 93.939117,-14.547241 106.351135,-58.975891c6.241425,-22.340973 2.379425,-44.949768 -8.88736,-63.479156c11.150452,-10.197815 19.87851,-23.115479 24.154938,-38.423218c12.411987,-44.429184 -15.166534,-90.100174 -61.488464,-102.004562c-4.876221,-1.252594 -9.760712,-1.958252 -14.624115,-2.386368c2.882477,-39.01535 -23.261383,-75.825619 -64.109253,-86.323544z" id="path4952" stroke-dashoffset="0" stroke-miterlimit="4" stroke-linejoin="round" stroke-width="3" stroke="#000000" fill="#32aaef"/>
  </g>
 </g>
</svg>