<svg id="Capa_1" enable-background="new 0 0 512 512" height="512" viewBox="0 0 512 512" width="512" xmlns="http://www.w3.org/2000/svg"><g><path d="m361 302h30v30h-30z"/><path d="m376 212c-27.847 0-54.214 10.854-73.403 30h-31.597v-60h180v-182h-390v182h180v60h-31.597c-19.189-19.146-45.557-30-73.403-30-57.891 0-105 47.109-105 105v120c0 41.353 33.647 75 75 75 27.686 0 53.101-15.205 66.328-39.741l42.861-80.259h81.621l42.891 80.317c13.198 24.478 38.613 39.683 66.299 39.683 41.353 0 75-33.647 75-75v-120c0-57.891-47.109-105-105-105zm-195 120h-30v30h-30v-30h-30v-30h30v-30h30v30h30zm60 0h-30v-30h30zm60 0h-30v-30h30zm120 0h-30v30h-30v-30h-30v-30h30v-30h30v30h30z"/></g></svg>