<svg id="Capa_1" enable-background="new 0 0 512 512" height="512" viewBox="0 0 512 512" width="512" xmlns="http://www.w3.org/2000/svg"><g><path d="m468.59 154.407-124.812-.077c-1.073 0-1.671-1.204-1.021-2.062l40.688-53.559c15.76-20.745 11.73-50.292-9.02-66.054-20.745-15.761-50.289-11.731-66.054 9.02l-91.271 120.142c-5.638 7.422-12.943 13.281-21.132 17.057-.053-12.931-10.59-23.436-23.534-23.436h-45.839c-10.733 0-19.811 7.223-22.629 17.063h-73.313c-16.902 0-30.653 13.751-30.653 30.654v193.758c0 16.902 13.751 30.653 30.653 30.653h25.477c4.942 11.485 12.096 22.238 21.461 31.604 17.296 17.296 40.242 27.782 64.61 29.529 24.083 1.728 48.051-5.147 67.461-19.411 3.338-2.453 4.055-7.147 1.602-10.485-2.453-3.339-7.149-4.055-10.485-1.603-16.516 12.139-36.939 18.02-57.506 16.537-9.614-.689-18.969-2.975-27.707-6.694 10.147-9.76 23.387-15.507 37.463-16.215.718-.174 23.382.201 42.289-18.706 15.559-15.56 22.015-37.692 17.27-59.205-2.36-10.699-15.648-14.51-23.361-6.8l-27.888 27.889c-2.06 2.061-5.412 2.061-7.473 0l-11.113-11.113c-2.066-2.065-2.065-5.407 0-7.473l27.889-27.889c7.708-7.708 3.91-20.996-6.799-23.36-21.514-4.742-43.646 1.711-59.205 17.27-18.549 18.548-18.607 41.747-18.699 42.124-.745 14.193-6.495 27.508-16.221 37.626-13.339-31.463-7.318-69.464 18.479-95.262 33.811-33.81 88.823-33.811 122.633 0 28.947 28.947 33.405 73.813 12.036 107.602-2.214 3.501-1.171 8.134 2.33 10.348 3.501 2.216 8.134 1.171 10.348-2.33 2.454-3.881 4.632-7.921 6.525-12.085 8.625 2.6 50.742 26.168 116.327 26.168l64.073.507c24.722 0 44.461-20.585 43.291-45.425-.484-10.293-4.824-19.963-11.841-27.354 18.131-4.213 32.038-20.071 32.615-38.936.457-14.895-5.57-28.279-15.966-36.916 13.391-7.156 22.764-20.88 23.288-36.6.409-12.281-4.449-23.695-12.582-31.93 17.192-5.517 30.043-21.214 30.696-39.667.875-24.593-18.829-44.904-43.38-44.904zm-389.07 278.213c12.839-12.839 20.438-29.981 21.399-48.272.064-.263.11-18.085 14.326-32.3 11.424-11.425 27.476-16.44 43.306-13.639l-26.404 26.404c-7.927 7.927-7.927 20.759 0 28.687l11.113 11.113c7.909 7.908 20.777 7.908 28.686 0l26.404-26.405c2.804 15.83-2.214 31.883-13.638 43.307-14.219 14.219-32.254 14.279-32.49 14.336-18.124.91-35.2 8.507-48.083 21.39l-2.384 2.384c-4.849-3.2-9.395-6.9-13.557-11.063-4.215-4.215-7.904-8.759-11.068-13.551zm38.541-142.093v-52.376c0-4.143-3.358-7.5-7.5-7.5s-7.5 3.357-7.5 7.5v58.596c-9.181 4.705-17.792 10.896-25.47 18.575-26.309 26.31-35.165 63.565-26.567 97.243h-20.371c-8.631 0-15.653-7.022-15.653-15.653v-193.757c0-8.631 7.022-15.653 15.653-15.653h72.407v15.296c0 4.143 3.358 7.5 7.5 7.5s7.5-3.357 7.5-7.5v-23.825c0-4.706 3.828-8.534 8.534-8.534h45.839c4.706 0 8.534 3.828 8.534 8.534v10.322c-.002.096-.002.192 0 .288v100.946c-20.406-6.601-42.5-6.601-62.906-.002zm378.92-91.746c-.534 15.06-13.634 27.311-29.202 27.311h-71.647c-4.107 0-7.688 3.165-7.811 7.27-.127 4.247 3.278 7.73 7.497 7.73 28.307.072 54.767-.172 57.938.187 14.569 1.642 25.599 14.438 25.108 29.131-.503 15.089-13.631 27.364-29.269 27.364l-53.465.003c-4.107 0-7.688 3.165-7.81 7.27-.127 4.247 3.278 7.73 7.497 7.73 11.139.006 47.102-.026 48.625.033 15.974.62 27.624 14.014 27.1 31.156-.431 14.056-12.631 25.49-27.196 25.49h-48.214c-4.107 0-7.688 3.165-7.811 7.27-.127 4.247 3.278 7.73 7.497 7.73h25.187c4.04 0 8.051.74 11.803 2.237.093.037.176.071.247.1 10.422 4.372 17.213 13.808 17.723 24.625.768 16.323-12.232 29.72-28.249 29.72l-64.073-.507c-62.473 0-100.665-22.057-111.202-25.25 10.388-36.238-.092-74.333-25.817-100.06-7.678-7.678-16.288-13.869-25.469-18.574v-101.726c12.955-4.482 24.545-12.901 33.076-24.13l91.271-120.141c10.745-14.143 30.89-16.901 45.036-6.149 14.144 10.744 16.898 30.889 6.15 45.035l-40.688 53.559c-8.142 10.714-.495 26.129 12.956 26.136l124.815.077c15.988-.001 28.97 13.209 28.397 29.373z"/></g></svg>